<mxfile host="65bd71144e" scale="4" border="0">
    <diagram id="qJ9MBqARzAfsm2wxXRRd" name="Page-1">
        <mxGraphModel dx="1099" dy="649" grid="1" gridSize="10" guides="1" tooltips="1" connect="1" arrows="1" fold="1" page="1" pageScale="1" pageWidth="583" pageHeight="827" math="0" shadow="0">
            <root>
                <mxCell id="0"/>
                <mxCell id="1" parent="0"/>
                <mxCell id="12" value="" style="rounded=0;whiteSpace=wrap;html=1;strokeWidth=0;opacity=0;" vertex="1" parent="1">
                    <mxGeometry x="42" y="353.5" width="500" height="120" as="geometry"/>
                </mxCell>
                <mxCell id="13" value="" style="group" vertex="1" connectable="0" parent="1">
                    <mxGeometry x="247" y="361" width="90" height="105" as="geometry"/>
                </mxCell>
                <mxCell id="5" value="" style="strokeWidth=2;html=1;shape=mxgraph.flowchart.database;whiteSpace=wrap;comic=0;fillColor=#d5e8d4;strokeColor=#82b366;" parent="13" vertex="1">
                    <mxGeometry y="85" width="90" height="20" as="geometry"/>
                </mxCell>
                <mxCell id="6" value="" style="strokeWidth=2;html=1;shape=mxgraph.flowchart.database;whiteSpace=wrap;comic=0;fillColor=#d5e8d4;strokeColor=#82b366;" parent="13" vertex="1">
                    <mxGeometry y="72" width="90" height="20" as="geometry"/>
                </mxCell>
                <mxCell id="7" value="" style="strokeWidth=2;html=1;shape=mxgraph.flowchart.database;whiteSpace=wrap;comic=0;fillColor=#d5e8d4;strokeColor=#82b366;" parent="13" vertex="1">
                    <mxGeometry y="59" width="90" height="20" as="geometry"/>
                </mxCell>
                <mxCell id="8" value="" style="strokeWidth=2;html=1;shape=mxgraph.flowchart.database;whiteSpace=wrap;comic=0;fillColor=#d5e8d4;strokeColor=#82b366;" parent="13" vertex="1">
                    <mxGeometry y="46" width="90" height="20" as="geometry"/>
                </mxCell>
                <mxCell id="9" value="" style="strokeWidth=2;html=1;shape=mxgraph.flowchart.database;whiteSpace=wrap;comic=0;fillColor=#d5e8d4;strokeColor=#82b366;" parent="13" vertex="1">
                    <mxGeometry y="33" width="90" height="20" as="geometry"/>
                </mxCell>
                <mxCell id="10" value="" style="strokeWidth=2;html=1;shape=mxgraph.flowchart.database;whiteSpace=wrap;comic=0;fillColor=#d5e8d4;strokeColor=#82b366;" parent="13" vertex="1">
                    <mxGeometry y="20" width="90" height="20" as="geometry"/>
                </mxCell>
                <mxCell id="11" value="" style="strokeWidth=2;html=1;shape=mxgraph.flowchart.database;whiteSpace=wrap;comic=0;fillColor=#f8cecc;strokeColor=#b85450;" parent="13" vertex="1">
                    <mxGeometry width="90" height="20" as="geometry"/>
                </mxCell>
            </root>
        </mxGraphModel>
    </diagram>
</mxfile>